<?xml version="1.0" encoding="UTF-8" standalone="no"?>
<svg
   xmlns:dc="http://purl.org/dc/elements/1.1/"
   xmlns:cc="http://creativecommons.org/ns#"
   xmlns:rdf="http://www.w3.org/1999/02/22-rdf-syntax-ns#"
   xmlns:svg="http://www.w3.org/2000/svg"
   xmlns="http://www.w3.org/2000/svg"
   xmlns:xlink="http://www.w3.org/1999/xlink"
   xmlns:sodipodi="http://sodipodi.sourceforge.net/DTD/sodipodi-0.dtd"
   xmlns:inkscape="http://www.inkscape.org/namespaces/inkscape"
   height="48px"
   id="svg2913"
   width="48px"
   version="1.1"
   inkscape:version="0.48.5 r10040"
   sodipodi:docname="1423516221_drive-harddisk.svg">
  <metadata
     id="metadata3074">
    <rdf:RDF>
      <cc:Work
         rdf:about="">
        <dc:format>image/svg+xml</dc:format>
        <dc:type
           rdf:resource="http://purl.org/dc/dcmitype/StillImage" />
        <dc:title></dc:title>
      </cc:Work>
    </rdf:RDF>
  </metadata>
  <sodipodi:namedview
     pagecolor="#ffffff"
     bordercolor="#666666"
     borderopacity="1"
     objecttolerance="10"
     gridtolerance="10"
     guidetolerance="10"
     inkscape:pageopacity="0"
     inkscape:pageshadow="2"
     inkscape:window-width="1871"
     inkscape:window-height="1176"
     id="namedview3072"
     showgrid="false"
     inkscape:zoom="4.9166667"
     inkscape:cx="-32.183071"
     inkscape:cy="48.802482"
     inkscape:window-x="1249"
     inkscape:window-y="744"
     inkscape:window-maximized="1"
     inkscape:current-layer="svg2913" />
  <defs
     id="defs3">
    <radialGradient
       cx="605.71429"
       cy="486.64789"
       fx="605.71429"
       fy="486.64789"
       gradientTransform="matrix(-2.774389,0,0,1.969706,112.7623,-872.8854)"
       gradientUnits="userSpaceOnUse"
       id="radialGradient6719"
       r="117.14286"
       xlink:href="#linearGradient5060" />
    <linearGradient
       id="linearGradient5060">
      <stop
         id="stop5062"
         offset="0"
         style="stop-color:black;stop-opacity:1;" />
      <stop
         id="stop5064"
         offset="1"
         style="stop-color:black;stop-opacity:0;" />
    </linearGradient>
    <radialGradient
       cx="605.71429"
       cy="486.64789"
       fx="605.71429"
       fy="486.64789"
       gradientTransform="matrix(2.774389,0,0,1.969706,-1891.633,-872.8854)"
       gradientUnits="userSpaceOnUse"
       id="radialGradient6717"
       r="117.14286"
       xlink:href="#linearGradient5060" />
    <linearGradient
       id="linearGradient5048">
      <stop
         id="stop5050"
         offset="0"
         style="stop-color:black;stop-opacity:0;" />
      <stop
         id="stop5056"
         offset="0.5"
         style="stop-color:black;stop-opacity:1;" />
      <stop
         id="stop5052"
         offset="1"
         style="stop-color:black;stop-opacity:0;" />
    </linearGradient>
    <linearGradient
       gradientTransform="matrix(2.774389,0,0,1.969706,-1892.179,-872.8854)"
       gradientUnits="userSpaceOnUse"
       id="linearGradient6715"
       x1="302.85715"
       x2="302.85715"
       xlink:href="#linearGradient5048"
       y1="366.64789"
       y2="609.50507" />
    <linearGradient
       id="linearGradient2555">
      <stop
         id="stop2557"
         offset="0"
         style="stop-color:#ffffff;stop-opacity:1;" />
      <stop
         id="stop2561"
         offset="0.50000000"
         style="stop-color:#e6e6e6;stop-opacity:1.0000000;" />
      <stop
         id="stop2563"
         offset="0.75000000"
         style="stop-color:#ffffff;stop-opacity:1.0000000;" />
      <stop
         id="stop2565"
         offset="0.84166664"
         style="stop-color:#e1e1e1;stop-opacity:1.0000000;" />
      <stop
         id="stop2559"
         offset="1.0000000"
         style="stop-color:#ffffff;stop-opacity:1.0000000;" />
    </linearGradient>
    <linearGradient
       id="linearGradient4274">
      <stop
         id="stop4276"
         offset="0.0000000"
         style="stop-color:#ffffff;stop-opacity:0.25490198;" />
      <stop
         id="stop4278"
         offset="1.0000000"
         style="stop-color:#ffffff;stop-opacity:1.0000000;" />
    </linearGradient>
    <linearGradient
       id="linearGradient4264">
      <stop
         id="stop4266"
         offset="0"
         style="stop-color:#000000;stop-opacity:1;" />
      <stop
         id="stop4268"
         offset="1"
         style="stop-color:#000000;stop-opacity:0;" />
    </linearGradient>
    <linearGradient
       id="linearGradient4254">
      <stop
         id="stop4256"
         offset="0"
         style="stop-color:#ffffff;stop-opacity:1;" />
      <stop
         id="stop4258"
         offset="1"
         style="stop-color:#ffffff;stop-opacity:0;" />
    </linearGradient>
    <linearGradient
       id="linearGradient4244">
      <stop
         id="stop4246"
         offset="0.0000000"
         style="stop-color:#e4e4e4;stop-opacity:1.0000000;" />
      <stop
         id="stop4248"
         offset="1.0000000"
         style="stop-color:#d3d3d3;stop-opacity:1.0000000;" />
    </linearGradient>
    <linearGradient
       id="linearGradient4236">
      <stop
         id="stop4238"
         offset="0"
         style="stop-color:#eeeeee;stop-opacity:1;" />
      <stop
         id="stop4240"
         offset="1"
         style="stop-color:#eeeeee;stop-opacity:0;" />
    </linearGradient>
    <linearGradient
       id="linearGradient4228">
      <stop
         id="stop4230"
         offset="0.0000000"
         style="stop-color:#bbbbbb;stop-opacity:1.0000000;" />
      <stop
         id="stop4232"
         offset="1.0000000"
         style="stop-color:#9f9f9f;stop-opacity:1.0000000;" />
    </linearGradient>
    <linearGradient
       id="linearGradient4184">
      <stop
         id="stop4186"
         offset="0.0000000"
         style="stop-color:#838383;stop-opacity:1.0000000;" />
      <stop
         id="stop4188"
         offset="1.0000000"
         style="stop-color:#bbbbbb;stop-opacity:0.0000000;" />
    </linearGradient>
    <linearGradient
       gradientTransform="translate(0.795493,-1.325821)"
       gradientUnits="userSpaceOnUse"
       id="linearGradient4209"
       x1="7.0625000"
       x2="24.687500"
       xlink:href="#linearGradient4184"
       y1="35.281250"
       y2="35.281250" />
    <linearGradient
       gradientUnits="userSpaceOnUse"
       id="linearGradient4234"
       x1="7.6046205"
       x2="36.183067"
       xlink:href="#linearGradient4228"
       y1="28.481176"
       y2="40.943935" />
    <linearGradient
       gradientUnits="userSpaceOnUse"
       id="linearGradient4242"
       x1="12.277412"
       x2="12.221823"
       xlink:href="#linearGradient4236"
       y1="37.205811"
       y2="33.758667" />
    <radialGradient
       cx="15.571491"
       cy="2.9585190"
       fx="15.571491"
       fy="2.9585190"
       gradientTransform="matrix(1.286242,0.781698,-0.710782,1.169552,-2.354348,-4.876862)"
       gradientUnits="userSpaceOnUse"
       id="radialGradient4250"
       r="20.935817"
       xlink:href="#linearGradient4244" />
    <linearGradient
       gradientUnits="userSpaceOnUse"
       id="linearGradient4260"
       x1="12.378357"
       x2="44.096100"
       xlink:href="#linearGradient4254"
       y1="4.4331360"
       y2="47.620636" />
    <radialGradient
       cx="23.201941"
       cy="27.096155"
       fx="23.201941"
       fy="27.096155"
       gradientTransform="matrix(1.000000,0.000000,0.000000,0.651032,0.000000,9.455693)"
       gradientUnits="userSpaceOnUse"
       id="radialGradient4270"
       r="23.555494"
       xlink:href="#linearGradient4264" />
    <linearGradient
       gradientUnits="userSpaceOnUse"
       id="linearGradient4272"
       x1="23.688078"
       x2="23.688078"
       xlink:href="#linearGradient4274"
       y1="11.318835"
       y2="26.357183" />
    <linearGradient
       gradientUnits="userSpaceOnUse"
       id="linearGradient2553"
       x1="33.431175"
       x2="21.747974"
       xlink:href="#linearGradient2555"
       y1="31.964777"
       y2="11.780679" />
    <linearGradient
       inkscape:collect="always"
       xlink:href="#linearGradient2555"
       id="linearGradient3077"
       gradientUnits="userSpaceOnUse"
       x1="33.431175"
       y1="31.964777"
       x2="21.747974"
       y2="11.780679"
       gradientTransform="matrix(1.037815,0,0,1.060747,-1.632878,-2.094626)" />
    <linearGradient
       inkscape:collect="always"
       xlink:href="#linearGradient4254"
       id="linearGradient3092"
       gradientUnits="userSpaceOnUse"
       x1="12.378357"
       y1="4.4331360"
       x2="44.096100"
       y2="47.620636" />
    <linearGradient
       inkscape:collect="always"
       xlink:href="#linearGradient4274"
       id="linearGradient3097"
       gradientUnits="userSpaceOnUse"
       x1="23.688078"
       y1="11.318835"
       x2="23.688078"
       y2="26.357183" />
    <linearGradient
       inkscape:collect="always"
       xlink:href="#linearGradient4236"
       id="linearGradient3101"
       gradientUnits="userSpaceOnUse"
       x1="12.277412"
       y1="37.205811"
       x2="12.221823"
       y2="33.758667" />
    <linearGradient
       inkscape:collect="always"
       xlink:href="#linearGradient4184"
       id="linearGradient3104"
       gradientUnits="userSpaceOnUse"
       gradientTransform="translate(0.795493,-1.325821)"
       x1="7.0625000"
       y1="35.281250"
       x2="24.687500"
       y2="35.281250" />
    <radialGradient
       inkscape:collect="always"
       xlink:href="#linearGradient4244"
       id="radialGradient3107"
       gradientUnits="userSpaceOnUse"
       gradientTransform="matrix(1.286242,0.781698,-0.710782,1.169552,-2.354348,-4.876862)"
       cx="15.571491"
       cy="2.9585190"
       fx="15.571491"
       fy="2.9585190"
       r="20.935817" />
    <linearGradient
       inkscape:collect="always"
       xlink:href="#linearGradient4228"
       id="linearGradient3110"
       gradientUnits="userSpaceOnUse"
       x1="7.6046205"
       y1="28.481176"
       x2="36.183067"
       y2="40.943935" />
    <linearGradient
       inkscape:collect="always"
       xlink:href="#linearGradient5048"
       id="linearGradient4009"
       gradientUnits="userSpaceOnUse"
       gradientTransform="matrix(2.774389,0,0,1.969706,-1892.179,-872.8854)"
       x1="302.85715"
       y1="366.64789"
       x2="302.85715"
       y2="609.50507" />
    <radialGradient
       inkscape:collect="always"
       xlink:href="#linearGradient5060"
       id="radialGradient4011"
       gradientUnits="userSpaceOnUse"
       gradientTransform="matrix(2.774389,0,0,1.969706,-1891.633,-872.8854)"
       cx="605.71429"
       cy="486.64789"
       fx="605.71429"
       fy="486.64789"
       r="117.14286" />
    <radialGradient
       inkscape:collect="always"
       xlink:href="#linearGradient5060"
       id="radialGradient4013"
       gradientUnits="userSpaceOnUse"
       gradientTransform="matrix(-2.774389,0,0,1.969706,112.7623,-872.8854)"
       cx="605.71429"
       cy="486.64789"
       fx="605.71429"
       fy="486.64789"
       r="117.14286" />
    <linearGradient
       inkscape:collect="always"
       xlink:href="#linearGradient4228"
       id="linearGradient4015"
       gradientUnits="userSpaceOnUse"
       x1="7.6046205"
       y1="28.481176"
       x2="36.183067"
       y2="40.943935" />
    <radialGradient
       inkscape:collect="always"
       xlink:href="#linearGradient4244"
       id="radialGradient4017"
       gradientUnits="userSpaceOnUse"
       gradientTransform="matrix(1.286242,0.781698,-0.710782,1.169552,-2.354348,-4.876862)"
       cx="15.571491"
       cy="2.9585190"
       fx="15.571491"
       fy="2.9585190"
       r="20.935817" />
    <linearGradient
       inkscape:collect="always"
       xlink:href="#linearGradient4184"
       id="linearGradient4019"
       gradientUnits="userSpaceOnUse"
       gradientTransform="translate(0.795493,-1.325821)"
       x1="7.0625000"
       y1="35.281250"
       x2="24.687500"
       y2="35.281250" />
    <linearGradient
       inkscape:collect="always"
       xlink:href="#linearGradient4236"
       id="linearGradient4021"
       gradientUnits="userSpaceOnUse"
       x1="12.277412"
       y1="37.205811"
       x2="12.221823"
       y2="33.758667" />
    <linearGradient
       inkscape:collect="always"
       xlink:href="#linearGradient4274"
       id="linearGradient4023"
       gradientUnits="userSpaceOnUse"
       x1="23.688078"
       y1="11.318835"
       x2="23.688078"
       y2="26.357183" />
    <linearGradient
       inkscape:collect="always"
       xlink:href="#linearGradient4254"
       id="linearGradient4025"
       gradientUnits="userSpaceOnUse"
       x1="12.378357"
       y1="4.4331360"
       x2="44.096100"
       y2="47.620636" />
    <linearGradient
       inkscape:collect="always"
       xlink:href="#linearGradient2555"
       id="linearGradient4027"
       gradientUnits="userSpaceOnUse"
       gradientTransform="matrix(1.037815,0,0,1.060747,-1.632878,-2.094626)"
       x1="33.431175"
       y1="31.964777"
       x2="21.747974"
       y2="11.780679" />
  </defs>
  <g
     id="g3980"
     transform="matrix(0.66102555,0,0,0.66102555,16.737083,20.055068)">
    <g
       id="g6707"
       transform="matrix(0.0245274,0,0,0.02086758,45.69054,36.1536)">
      <rect
         height="478.35718"
         id="rect6709"
         style="opacity:0.40206185;color:#000000;fill:url(#linearGradient4009);fill-opacity:1;fill-rule:nonzero;stroke:none;stroke-width:1;marker:none;visibility:visible;display:inline;overflow:visible"
         width="1339.6335"
         x="-1559.2523"
         y="-150.69685" />
      <path
         d="m -219.61876,-150.68038 c 0,0 0,478.33079 0,478.33079 142.874166,0.90045 345.40022,-107.16966 345.40014,-239.196175 0,-132.026537 -159.436816,-239.134595 -345.40014,-239.134615 z"
         id="path6711"
         style="opacity:0.40206185;color:#000000;fill:url(#radialGradient4011);fill-opacity:1;fill-rule:nonzero;stroke:none;stroke-width:1;marker:none;visibility:visible;display:inline;overflow:visible"
         inkscape:connector-curvature="0" />
      <path
         d="m -1559.2523,-150.68038 c 0,0 0,478.33079 0,478.33079 -142.8742,0.90045 -345.4002,-107.16966 -345.4002,-239.196175 0,-132.026537 159.4368,-239.134595 345.4002,-239.134615 z"
         id="path6713"
         style="opacity:0.40206185;color:#000000;fill:url(#radialGradient4013);fill-opacity:1;fill-rule:nonzero;stroke:none;stroke-width:1;marker:none;visibility:visible;display:inline;overflow:visible"
         inkscape:connector-curvature="0" />
    </g>
    <path
       d="m 11.28569,7.9626278 c -0.625,0 -1.031249,0.2901802 -1.281248,0.843753 -10e-7,0 -6.4687505,17.1035572 -6.4687505,17.1035572 0,0 -0.25,0.671559 -0.25,1.78125 0,0 0,9.649968 0,9.649968 0,1.082613 0.6577855,1.625002 1.65625,1.625 l 38.5624985,0 c 0.984853,0 1.59375,-0.71818 1.59375,-1.84375 l 0,-9.649968 c 0,0 0.105963,-0.770423 -0.09375,-1.3125 L 38.28569,8.9626314 C 38.101165,8.4507246 37.648785,7.9745331 37.16069,7.9626278 l -25.875,0 z"
       id="path4196"
       style="fill:none;stroke:#535353;stroke-width:2;stroke-linecap:round;stroke-linejoin:round;stroke-miterlimit:4;stroke-opacity:1;stroke-dasharray:none"
       inkscape:connector-curvature="0" />
    <path
       d="m 3.2735915,26.996812 0.7646021,-0.692215 37.6096894,0.0625 3.462407,0.317298 0,10.438532 c 0,1.125569 -0.607018,1.843331 -1.591871,1.843331 l -38.5829876,0 c -0.9984647,0 -1.6618399,-0.542051 -1.6618399,-1.624664 l 0,-10.344782 z"
       id="path4170"
       style="fill:url(#linearGradient4015);fill-opacity:1;fill-rule:evenodd;stroke:none"
       inkscape:connector-curvature="0" />
    <path
       d="m 3.5490842,25.914404 c -0.7142857,1.464286 -6.156e-4,2.392857 1.0357143,2.392857 0,0 38.9999985,0 38.9999985,0 1.119047,-0.02381 1.845238,-1.011905 1.428571,-2.142858 L 38.299082,8.9537044 C 38.114558,8.4417976 37.64432,7.9656058 37.156225,7.9537008 l -25.857142,0 c -0.625,0 -1.035714,0.3035732 -1.285713,0.857146 0,0 -6.4642858,17.1035572 -6.4642858,17.1035572 z"
       id="path3093"
       style="fill:url(#radialGradient4017);fill-opacity:1;fill-rule:evenodd;stroke:none"
       inkscape:connector-curvature="0" />
    <rect
       height="5.5625"
       id="rect4174"
       style="color:#000000;fill:url(#linearGradient4019);fill-opacity:1;fill-rule:evenodd;stroke:none;stroke-width:2.40899992;marker:none;visibility:visible;display:inline;overflow:visible"
       width="17.625"
       x="7.857996"
       y="31.174183" />
    <path
       d="m 7.8579947,36.73668 c 0,0 0,-4.011485 0,-4.011485 1.8355274,3.179226 8.2964903,4.011485 12.9374973,4.011485 0,0 -12.9374973,0 -12.9374973,0 z"
       id="path4194"
       style="opacity:0.81142853;fill:url(#linearGradient4021);fill-opacity:1;fill-rule:evenodd;stroke:none"
       inkscape:connector-curvature="0" />
    <path
       d="m 44.796162,25.628688 c 0.06352,1.249974 -0.414003,2.31584 -1.322116,2.34375 0,0 -38.1187164,-1e-6 -38.1187163,0 -1.2892319,0 -1.867736,-0.324947 -2.0840507,-0.868056 0.091761,0.944332 0.8258174,1.649306 2.0840507,1.649306 -1e-7,-1e-6 38.1187163,0 38.1187163,0 1.076007,-0.03307 1.752805,-1.424024 1.352164,-2.994791 l -0.03005,-0.130209 z"
       id="path4201"
       style="fill:#ffffff;fill-opacity:1;fill-rule:evenodd;stroke:none"
       inkscape:connector-curvature="0" />
    <path
       d="m 10.96875,10.15625 c -0.04608,0.200321 -0.1875,0.386797 -0.1875,0.59375 0,0.948605 0.59098,1.789474 1.34375,2.59375 0.240268,-0.154075 0.365117,-0.354408 0.625,-0.5 -0.940309,-0.816004 -1.553396,-1.716582 -1.78125,-2.6875 z m 26.65625,0 c -0.228727,0.969616 -0.842012,1.872426 -1.78125,2.6875 0.274144,0.153582 0.403988,0.36824 0.65625,0.53125 0.757262,-0.806656 1.3125,-1.673044 1.3125,-2.625 0,-0.206953 -0.141594,-0.393429 -0.1875,-0.59375 z m 2.1875,8.4375 c -0.613791,4.040111 -7.298613,7.25 -15.53125,7.25 -8.212254,1e-6 -14.8601499,-3.192786 -15.5,-7.21875 -0.032357,0.197132 -0.125,0.391882 -0.125,0.59375 3e-7,4.317947 6.989104,7.843751 15.625,7.84375 8.635896,0 15.656249,-3.525802 15.65625,-7.84375 0,-0.212924 -0.08905,-0.417356 -0.125,-0.625 z"
       id="path4211"
       style="opacity:0.69142857;color:#000000;fill:url(#linearGradient4023);fill-opacity:1;fill-rule:evenodd;stroke:none;stroke-width:2;marker:none;visibility:visible;display:inline;overflow:visible"
       inkscape:connector-curvature="0" />
    <path
       d="m 8.6620583,25.77033 a 1.3700195,1.016466 0 1 1 -2.7400389,0 1.3700195,1.016466 0 1 1 2.7400389,0 z"
       id="path4224"
       style="color:#000000;fill:#ffffff;fill-opacity:0.45762712;fill-rule:evenodd;stroke:none;stroke-width:2;marker:none;visibility:visible;display:inline;overflow:visible"
       inkscape:connector-curvature="0" />
    <path
       d="m 42.54072,25.681942 a 1.3700195,1.016466 0 1 1 -2.740039,0 1.3700195,1.016466 0 1 1 2.740039,0 z"
       id="path4226"
       style="color:#000000;fill:#ffffff;fill-opacity:0.45762712;fill-rule:evenodd;stroke:none;stroke-width:2;marker:none;visibility:visible;display:inline;overflow:visible"
       inkscape:connector-curvature="0" />
    <path
       d="m 11.642515,8.4157227 c -0.601692,0 -0.992791,0.2793586 -1.233466,0.8122873 -10e-7,0 -6.4150149,16.590722 -6.4150149,16.590722 0,0 -0.2406768,0.646515 -0.2406768,1.714823 0,0 0,9.290096 0,9.290096 0,1.35474 0.4440561,1.626899 1.5944841,1.626899 l 37.6869046,0 c 1.323126,0 1.534316,-0.316397 1.534316,-1.837492 l 0,-9.290096 c 0,0 0.10201,-0.741691 -0.09025,-1.263553 L 37.885616,9.2534336 C 37.707973,8.7606171 37.334964,8.427184 36.865071,8.4157227 l -25.222556,0 z"
       id="path4252"
       style="fill:none;stroke:url(#linearGradient4025);stroke-width:1.00000024;stroke-linecap:round;stroke-linejoin:round;stroke-miterlimit:4;stroke-opacity:1;stroke-dasharray:none"
       inkscape:connector-curvature="0" />
    <path
       d="m 40.5,31.429166 0,5.020935"
       id="path4282"
       style="fill:none;stroke:#2eb672;stroke-width:1.00000048px;stroke-linecap:square;stroke-linejoin:miter;stroke-opacity:1"
       inkscape:connector-curvature="0" />
    <path
       d="m 38.5,31.488943 0,5.020935"
       id="path4284"
       style="fill:none;stroke:#2eb672;stroke-width:1.00000048px;stroke-linecap:square;stroke-linejoin:miter;stroke-opacity:1"
       inkscape:connector-curvature="0" />
    <path
       d="m 36.5,31.488943 0,5.020935"
       id="path4286"
       style="fill:none;stroke:#537abd;stroke-width:1.00000048px;stroke-linecap:square;stroke-linejoin:miter;stroke-opacity:1"
       inkscape:connector-curvature="0" />
    <path
       d="m 34.5,31.488943 0,5.020935"
       id="path4288"
       style="fill:none;stroke:#537abd;stroke-width:1.00000048px;stroke-linecap:square;stroke-linejoin:miter;stroke-opacity:1"
       inkscape:connector-curvature="0" />
    <path
       d="m 32.5,31.488943 0,5.020935"
       id="path4290"
       style="fill:none;stroke:#fed14b;stroke-width:1.00000048px;stroke-linecap:square;stroke-linejoin:miter;stroke-opacity:1"
       inkscape:connector-curvature="0" />
    <path
       d="m 30.5,31.488943 0,5.020935"
       id="path4292"
       style="fill:none;stroke:#fed14b;stroke-width:1.00000048px;stroke-linecap:square;stroke-linejoin:miter;stroke-opacity:1"
       inkscape:connector-curvature="0" />
    <path
       d="M 39.5,31.479065 39.5,36.5"
       id="path4294"
       style="opacity:0.09714284;fill:none;stroke:#000000;stroke-width:1.00000048px;stroke-linecap:square;stroke-linejoin:miter;stroke-opacity:1"
       inkscape:connector-curvature="0" />
    <path
       d="m 37.5,31.538842 0,5.020935"
       id="path4296"
       style="opacity:0.09714284;fill:none;stroke:#000000;stroke-width:1.00000048px;stroke-linecap:square;stroke-linejoin:miter;stroke-opacity:1"
       inkscape:connector-curvature="0" />
    <path
       d="m 35.5,31.538842 0,5.020935"
       id="path4298"
       style="opacity:0.09714284;fill:none;stroke:#000000;stroke-width:1.00000048px;stroke-linecap:square;stroke-linejoin:miter;stroke-opacity:1"
       inkscape:connector-curvature="0" />
    <path
       d="m 33.5,31.538842 0,5.020935"
       id="path4300"
       style="opacity:0.09714284;fill:none;stroke:#000000;stroke-width:1.00000048px;stroke-linecap:square;stroke-linejoin:miter;stroke-opacity:1"
       inkscape:connector-curvature="0" />
    <path
       d="m 31.5,31.538842 0,5.020935"
       id="path4302"
       style="opacity:0.09714284;fill:none;stroke:#000000;stroke-width:1.00000048px;stroke-linecap:square;stroke-linejoin:miter;stroke-opacity:1"
       inkscape:connector-curvature="0" />
    <path
       d="m 7.875,31.1875 0,5.53125 12.5625,0 L 8.21875,36.375 7.875,31.1875 z"
       id="path4572"
       style="opacity:0.43999999;fill:#ffffff;fill-opacity:1;fill-rule:evenodd;stroke:none"
       inkscape:connector-curvature="0" />
    <path
       d="m 39.749995,18.656237 a 15.437498,7.0937456 0 0 1 -30.8749961,0 15.437498,7.0937456 0 1 1 30.8749961,0 z"
       id="path2545"
       style="opacity:0.20571427;color:#000000;fill:url(#linearGradient4027);fill-opacity:1;fill-rule:evenodd;stroke:none;stroke-width:0.93365198;marker:none;visibility:visible;display:inline;overflow:visible"
       inkscape:connector-curvature="0" />
  </g>
  <g
     id="g3966"
     transform="matrix(0.88138571,0,0,0.88138571,29.235057,7.7526195)">
    <path
       sodipodi:nodetypes="cccccc"
       inkscape:connector-curvature="0"
       id="path3935"
       d="M -21.336307,6.8455894 -29.186441,10.118644 -7.8813559,25.271186 -2.8909568,15.104818 -10.297925,9.8606116 z"
       style="fill:#e32475;fill-opacity:1;stroke:none" />
    <path
       sodipodi:nodetypes="cccccccsc"
       inkscape:connector-curvature="0"
       id="path3937"
       d="m -28.575213,9.9029165 -2.543431,2.5038635 1.271186,2.79661 17.186441,16.271186 3.7118644,-1.169491 1.220339,-3.589546 c -2.2498166,-1.37325 3.719779,-1.288662 -2.3513964,-6.338922 -3.208813,-2.59268 -9.588272,-5.070785 -12.647246,-6.602346 -3.058974,-1.531561 -2.833418,-1.757031 -5.847757,-3.8713545 z"
       style="fill:#4cc898;fill-opacity:1;stroke:none" />
    <path
       sodipodi:nodetypes="cccccccsscc"
       inkscape:connector-curvature="0"
       id="path3933"
       d="m -21.559322,7.3728813 5.898305,1.4745763 3.508475,0.6610169 c 0.203389,0 3.9661013,1.0677965 3.9661013,1.0677965 l 3.2542373,2.288136 1.220339,1.932203 -1.4745763,4.932204 c 0,0 -1.4640524,-2.823781 -4.1915575,-5.134535 -1.4210738,-1.20394 -9.4342998,-2.293215 -12.5457308,-4.045495 -4.756944,-2.678992 -3.654658,-2.3834051 -3.654658,-2.3834051 z"
       style="fill:#f7b51f;fill-opacity:1;stroke:none" />
    <path
       style="fill:#585858;fill-opacity:1"
       inkscape:connector-curvature="0"
       d="m -5.5716954,-3.5734656 c -0.608286,-0.607 -1.4146187,-0.9413644 -2.2736781,-0.9413644 -0.8590593,0 -1.665392,0.3343644 -2.2762505,0.9426505 l -1.813284,1.815856 c -0.608286,0.607 -0.943936,1.41461867 -0.943936,2.27496404 0,0.60571396 0.165896,1.18570766 0.477112,1.68854036 l -17.460253,6.9946464 c -1.167703,0.5131208 -2.0049,1.5663687 -2.240241,2.8150917 -0.237913,1.256438 0.160752,2.545027 1.072538,3.455527 l 16.358136,16.178094 c 0.704738,0.704737 1.640958,1.104689 2.629905,1.127837 0.02315,0.0013 0.07716,0.0013 0.100309,0.0013 0.259776,0 0.523409,-0.02701 0.784471,-0.07973 1.2783007,-0.26492 2.3251185,-1.148413 2.7996588,-2.350839 l 6.8699028,-17.201764 c 0.51697882,0.340795 1.12526486,0.523409 1.75798522,0.523409 0.86163138,0 1.66796408,-0.33565 2.27367808,-0.94265 l 1.8094259,-1.810712 c 0.6134301,-0.609572 0.9490805,-1.4184768 0.9490805,-2.2801081 0,-0.8616314 -0.3369364,-1.6718221 -0.9413644,-2.2736781 L -5.5716954,-3.5734656 z M -10.745342,29.39358 c -0.159466,0.402524 -0.510549,0.699593 -0.934934,0.787043 -0.09774,0.02058 -0.196761,0.02829 -0.294498,0.02701 -0.326648,-0.0077 -0.641723,-0.13889 -0.877064,-0.375517 L -29.220262,13.64373 c -0.300928,-0.299642 -0.433388,-0.729172 -0.353655,-1.148413 0.07845,-0.41667 0.358799,-0.769038 0.748462,-0.938793 l 7.995168,-3.2021819 c 5.387125,1.7914219 10.775536,0.065587 16.1652336,5.8153689 L -10.745342,29.39358 z M 2.5430719,9.0912299 0.72464383,10.908372 c -0.25077332,0.252059 -0.65844071,0.252059 -0.90921402,0 L -2.4582482,8.6359798 -4.2998246,13.251495 -4.1467886,12.861832 C -8.0176997,8.9973506 -11.951626,8.5099502 -15.501033,8.0739904 -16.64173,7.9338146 -17.747704,7.7872086 -18.834389,7.5531535 L -7.9148184,3.1794097 -10.120338,0.97389056 c -0.250773,-0.25077332 -0.250773,-0.65844071 0,-0.90921402 l 1.8184285,-1.81971404 c 0.2507733,-0.2507733 0.6584407,-0.2507733 0.909214,0 l 9.9344813,9.9370533 c 0.2546314,0.2507734 0.2546314,0.6584407 0.00129,0.9092141 z"
       id="path4" />
    <path
       inkscape:connector-curvature="0"
       id="path3947"
       d="m -12.508475,13.322034 -0.915254,2.338983 0.762712,1.372881 2.288136,0.864407 L -9,17.186441 -8.2881356,15.050847 -8.6440678,13.627119 -10.627119,12.864407 z"
       style="fill:#73cddc;fill-opacity:1;stroke:none" />
    <path
       style="fill:#585858;fill-opacity:1"
       inkscape:connector-curvature="0"
       d="m -10.949819,18.633476 c 1.7721319,0 3.215043,-1.441625 3.215043,-3.215043 0,-1.773417 -1.4416251,-3.215042 -3.215043,-3.215042 -1.773417,0 -3.215042,1.441625 -3.215042,3.215042 0,1.773418 1.442911,3.215043 3.215042,3.215043 z m 0,-5.144068 c 1.0648226,0 1.929026,0.864203 1.929026,1.929025 0,1.064823 -0.8642034,1.929026 -1.929026,1.929026 -1.066108,0 -1.929025,-0.864203 -1.929025,-1.929026 0,-1.064822 0.862917,-1.929025 1.929025,-1.929025 z"
       id="path6" />
    <path
       inkscape:connector-curvature="0"
       id="path3949"
       d="M 3.8135593,-6.8135594 3.3559322,-4.4237289 5.3389831,-2.6949153 8.1355932,-3.661017 8.2881356,-5.8474577 7.1694915,-7.1694916 5.1355932,-7.6779662 z"
       style="fill:#73cddc;fill-opacity:1;stroke:none" />
    <path
       style="fill:#585858;fill-opacity:1"
       inkscape:connector-curvature="0"
       d="m 5.7684025,-8.372881 c -1.7734174,0 -3.2150425,1.4416251 -3.2150425,3.2150425 0,1.7734174 1.4416251,3.2150425 3.2150425,3.2150425 1.7734174,0 3.2150425,-1.4416251 3.2150425,-3.2150425 0,-1.7734174 -1.4416251,-3.2150425 -3.2150425,-3.2150425 z m 0,5.144068 c -1.0648221,0 -1.9290255,-0.8642034 -1.9290255,-1.9290255 0,-1.0648221 0.8642034,-1.9290255 1.9290255,-1.9290255 1.0648221,0 1.9290255,0.8642034 1.9290255,1.9290255 0,1.0648221 -0.8642034,1.9290255 -1.9290255,1.9290255 z"
       id="path8" />
    <path
       inkscape:connector-curvature="0"
       id="path3945"
       d="m -21.254237,12.559322 -0.101695,1.169492 0.610169,1.067796 2.288136,0.355932 1.016949,-1.983051 -0.762712,-1.271186 -1.372881,-0.152542 z"
       style="fill:#73cddc;fill-opacity:1;stroke:none" />
    <path
       style="fill:#585858;fill-opacity:1"
       inkscape:connector-curvature="0"
       d="m -21.880963,13.489408 c 0,1.418477 1.153557,2.572034 2.572034,2.572034 1.418477,0 2.572034,-1.153557 2.572034,-2.572034 0,-1.418477 -1.153557,-2.572034 -2.572034,-2.572034 -1.418477,0 -2.572034,1.153557 -2.572034,2.572034 z m 2.572034,-1.286017 c 0.709881,0 1.286017,0.57485 1.286017,1.286017 0,0.711167 -0.576136,1.286017 -1.286017,1.286017 -0.709881,0 -1.286017,-0.57485 -1.286017,-1.286017 0,-0.711167 0.576136,-1.286017 1.286017,-1.286017 z"
       id="path10" />
    <circle
       transform="matrix(1.286017,0,0,1.286017,-32.169099,-8.372881)"
       d="m 14,23 c 0,0.552285 -0.447715,1 -1,1 -0.552285,0 -1,-0.447715 -1,-1 0,-0.552285 0.447715,-1 1,-1 0.552285,0 1,0.447715 1,1 z"
       style="fill:#585858;fill-opacity:1"
       sodipodi:ry="1"
       sodipodi:rx="1"
       sodipodi:cy="23"
       sodipodi:cx="13"
       cx="13"
       cy="23"
       r="1"
       id="circle12" />
    <circle
       transform="matrix(1.286017,0,0,1.286017,-32.169099,-8.372881)"
       d="m 30,8 c 0,0.5522847 -0.447715,1 -1,1 -0.552285,0 -1,-0.4477153 -1,-1 0,-0.5522847 0.447715,-1 1,-1 0.552285,0 1,0.4477153 1,1 z"
       style="fill:#585858;fill-opacity:1"
       sodipodi:ry="1"
       sodipodi:rx="1"
       sodipodi:cy="8"
       sodipodi:cx="29"
       cx="29"
       cy="8"
       r="1"
       id="circle14" />
  </g>
</svg>
